<?xml version="1.0" standalone="no"?>
<!DOCTYPE svg PUBLIC "-//W3C//DTD SVG 20010904//EN"
 "http://www.w3.org/TR/2001/REC-SVG-20010904/DTD/svg10.dtd">
<svg version="1.0" xmlns="http://www.w3.org/2000/svg"
 width="1024.000000pt" height="1024.000000pt" viewBox="0 0 1024.000000 1024.000000"
 preserveAspectRatio="xMidYMid meet">

<g transform="translate(0.000000,1024.000000) scale(0.100000,-0.100000)"
fill="#2d8a4e" stroke="none">
<path d="M4940 7544 c-14 -2 -59 -9 -100 -15 -554 -77 -1046 -327 -1428 -724
-250 -259 -449 -577 -562 -893 -51 -145 -106 -373 -121 -507 -17 -140 -17
-471 0 -595 59 -446 250 -894 528 -1240 320 -399 732 -671 1220 -806 485 -133
936 -117 1458 52 443 143 842 443 1153 867 323 440 503 1090 452 1632 -42 447
-217 895 -486 1246 -173 225 -323 371 -547 531 -333 238 -653 371 -1044 434
-93 15 -467 28 -523 18z m448 -189 c194 -37 405 -129 552 -239 173 -130 344
-338 405 -495 26 -66 34 -76 84 -108 31 -20 94 -74 141 -122 236 -238 415
-645 461 -1049 16 -149 6 -468 -20 -602 -42 -217 -101 -385 -177 -500 -21 -32
-23 -39 -12 -75 7 -24 12 -102 12 -190 -1 -121 -5 -165 -22 -227 -25 -92 -76
-206 -128 -283 -52 -79 -172 -205 -252 -263 -267 -197 -643 -237 -926 -98
-335 164 -531 500 -513 876 12 253 107 461 288 636 85 81 138 120 305 227 268
170 430 359 504 585 l32 98 56 13 c32 7 75 22 96 33 66 34 141 112 172 181 25
54 28 74 29 157 0 68 -5 108 -18 142 -39 100 -131 182 -240 214 l-63 18 -12
50 c-15 65 -79 198 -132 277 -97 142 -278 289 -448 364 -396 173 -869 91
-1172 -205 -138 -134 -213 -249 -265 -405 l-31 -90 -41 -7 c-94 -16 -195 -94
-240 -187 -25 -51 -28 -66 -28 -166 0 -98 3 -116 26 -165 53 -111 167 -202
273 -216 44 -6 46 -8 61 -58 9 -28 39 -97 67 -153 l50 -102 -38 -32 c-74 -62
-200 -195 -246 -259 -106 -149 -179 -306 -228 -495 -44 -170 -52 -252 -48
-469 l3 -197 -38 43 c-178 203 -354 590 -417 914 -85 440 -14 942 187 1324
106 202 264 392 382 460 33 19 61 40 61 45 0 25 114 236 160 297 62 81 221
233 297 284 187 124 408 206 629 234 90 11 328 3 422 -15z m-548 -1011 c80
-22 132 -56 214 -140 l73 -74 79 78 c129 129 265 177 426 152 270 -41 407
-322 281 -573 -36 -72 -88 -124 -194 -192 -158 -103 -189 -154 -200 -327 -9
-133 -25 -182 -85 -248 -70 -78 -153 -120 -264 -134 -107 -14 -258 40 -336
120 -66 68 -85 120 -94 254 -4 64 -14 131 -23 151 -24 58 -84 117 -189 186
-108 71 -145 110 -188 198 -75 151 -48 333 66 455 102 109 257 142 434 94z"/>
<path d="M5811 4514 c-207 -56 -369 -272 -347 -462 18 -157 137 -282 266 -282
33 0 71 8 95 20 70 33 71 34 46 68 -40 57 -21 136 40 168 56 29 112 12 167
-50 110 -126 34 -359 -147 -450 -100 -51 -261 -54 -370 -5 l-45 20 24 -27 c46
-49 137 -101 212 -120 238 -59 485 39 626 249 72 109 97 195 97 337 0 94 -4
127 -23 182 -61 177 -200 307 -377 353 -73 19 -192 18 -264 -1z"/>
<path d="M4683 6036 c-91 -41 -96 -167 -11 -242 48 -42 92 -49 184 -29 41 10
82 14 91 11 14 -6 15 0 10 46 -9 69 -53 155 -99 192 -45 35 -124 45 -175 22z"/>
<path d="M5435 6034 c-75 -39 -130 -125 -136 -214 -3 -38 -1 -45 14 -42 10 2
51 -4 91 -13 58 -13 82 -14 114 -5 75 20 132 88 132 156 0 40 -30 94 -64 115
-38 23 -110 25 -151 3z"/>
<path d="M4972 5424 c-40 -28 -25 -92 28 -119 34 -18 53 -12 76 22 15 25 15
26 -2 36 -11 6 -33 25 -50 44 -28 31 -31 32 -52 17z"/>
<path d="M5211 5393 l-43 -44 23 -25 c12 -13 31 -24 42 -24 25 0 77 53 77 79
0 21 -33 62 -47 59 -5 0 -28 -21 -52 -45z"/>
</g>
</svg>
